<svg width="34" height="36" viewBox="0 0 34 36" fill="none" xmlns="http://www.w3.org/2000/svg">
<path opacity="0.3" d="M27 32.3335H7.00006C6.07959 32.3335 5.3334 33.0797 5.3334 34.0002C5.3334 34.9206 6.07959 35.6668 7.00006 35.6668H27C27.9205 35.6668 28.6666 34.9206 28.6666 34.0002C28.6666 33.0797 27.9205 32.3335 27 32.3335Z" fill="white"/>
<path fill-rule="evenodd" clip-rule="evenodd" d="M5.33342 20.4501C2.45009 19.7001 0.333435 17.0835 0.333435 13.9835C0.333435 10.3002 3.31676 7.31685 7.00007 7.31685C7.18341 7.31685 7.36674 7.31685 7.55007 7.33352C8.90007 3.43353 12.6167 0.633545 16.9834 0.633545C21.3333 0.633545 25.05 3.41687 26.4167 7.31685C26.6 7.30018 26.7833 7.28352 26.9667 7.28352C30.6333 7.28352 33.6333 10.2668 33.6333 13.9502C33.6333 17.0501 31.5 19.6501 28.6333 20.4001V27.2668C28.6333 28.1834 27.8833 28.9334 26.9667 28.9334H6.96674C6.03341 28.9334 5.30008 28.1834 5.30008 27.2668V20.3835L5.33342 20.4501Z" fill="white"/>
</svg>
