<svg width="15" height="12" viewBox="0 0 15 12" fill="none" xmlns="http://www.w3.org/2000/svg">
<g id="Icon">
<path id="Icon_2" d="M5.09764 11.7363L0.205078 6.87303C0.0683591 6.73631 0 6.56053 0 6.34569C0 6.13085 0.0683591 5.95507 0.205078 5.81835L1.28906 4.76366C1.42578 4.60741 1.59668 4.5293 1.80175 4.5293C2.00683 4.5293 2.1875 4.60741 2.34374 4.76366L5.62499 8.0449L12.6562 1.01367C12.8125 0.857422 12.9931 0.779297 13.1982 0.779297C13.4033 0.779297 13.5742 0.857422 13.7109 1.01367L14.7949 2.06836C14.9316 2.20507 15 2.38086 15 2.5957C15 2.81054 14.9316 2.98632 14.7949 3.12304L6.15233 11.7363C6.01561 11.8926 5.83983 11.9707 5.62499 11.9707C5.41014 11.9707 5.23436 11.8926 5.09764 11.7363Z" fill="white"/>
</g>
</svg>
