<svg width="27" height="26" viewBox="0 0 27 26" fill="none" xmlns="http://www.w3.org/2000/svg">
<path opacity="0.4" d="M8.8 17.8001H8.7995C6.59 17.8001 4.7995 19.5906 4.7995 21.8001C4.7995 24.0091 6.59 25.8001 8.7995 25.7996C11.0085 25.7991 12.7995 24.0086 12.799 21.7991C12.799 19.5896 11.008 17.7991 8.799 17.7991L8.8 17.8001ZM23.2 17.8001H23.1995C20.99 17.8001 19.1995 19.5906 19.1995 21.8001C19.1995 24.0091 20.99 25.8001 23.1995 25.7996C25.4085 25.7991 27.1995 24.0086 27.199 21.7991C27.199 19.5896 25.408 17.7991 23.199 17.7991L23.2 17.8001Z" fill="#7767E4"/>
<path d="M31.2 17.8H30.4V12.395C30.3985 11.7585 30.145 11.149 29.695 10.6995L24.6995 5.70399C24.25 5.25349 23.6405 4.99999 23.0045 4.99849H20.799V2.59849C20.799 1.27299 19.724 0.198486 18.399 0.198486H2.39897H2.39847C1.07297 0.198486 -0.00152588 1.27299 -0.00152588 2.59849V18.5985C-0.00152588 19.9235 1.07297 20.998 2.39847 20.998H3.30647C3.69797 18.2945 5.98697 16.198 8.79797 16.198C11.609 16.198 13.925 18.291 14.317 20.998H17.679C18.0715 18.291 20.384 16.198 23.198 16.198C26.012 16.198 28.298 18.2945 28.69 20.998H31.198H31.1975C31.639 20.998 31.9975 20.6395 31.9975 20.198V18.598C31.9975 18.156 31.639 17.798 31.1975 17.798L31.2 17.8ZM28 13H20.8V7.39999H23.005L28 12.395V13Z" fill="#7767E4"/>
</svg>
