<svg width="32" height="28" viewBox="0 0 32 28" fill="none" xmlns="http://www.w3.org/2000/svg">
<path d="M26.4332 23.9998L12.4999 12.2498C9.71661 9.89982 9.36661 5.74984 11.6999 2.98318C12.8333 1.61652 14.4833 0.78319 16.2666 0.649857C19.5666 0.416525 22.4499 2.91651 22.6666 6.23317C22.7832 8.01649 22.0999 9.76649 20.7999 10.9998L18.4999 8.56649C19.0666 7.99983 19.3832 7.23316 19.3166 6.43317C19.1999 4.94984 17.9332 3.83318 16.4499 3.93318C15.5666 3.98318 14.7499 4.39984 14.1833 5.06651C13.0166 6.43317 13.1999 8.46649 14.5666 9.61649L30.2332 22.8331C30.7832 23.2998 31.1165 23.9998 31.1165 24.7331C31.1165 26.0998 29.9832 27.2331 28.6165 27.2331H2.59997C1.79998 27.2331 1.04998 26.8498 0.583315 26.1998C-0.233349 25.0831 -1.63391e-05 23.5164 1.11665 22.6998L11.5499 15.0331L13.5166 17.7165L5.11663 23.8664H26.2832L26.4332 23.9998Z" fill="#7767E4"/>
</svg>
