<svg width="570" height="99" viewBox="0 0 570 99" fill="none" xmlns="http://www.w3.org/2000/svg">
<g id="Item">
<g id="airbnb">
<path id="Shape" fill-rule="evenodd" clip-rule="evenodd" d="M292.451 25.9369C292.451 29.2226 289.872 31.794 286.576 31.794C283.281 31.794 280.701 29.2226 280.701 25.9369C280.701 22.6512 283.281 20.0797 286.576 20.0797C290.015 20.2226 292.451 22.794 292.451 25.9369ZM268.522 37.6512C268.522 38.2226 268.522 39.0797 268.522 39.0797C268.522 39.0797 265.8 35.5083 259.782 35.5083C250.039 35.5083 242.445 42.9369 242.445 53.2226C242.445 63.3654 250.039 70.9369 259.782 70.9369C265.8 70.9369 268.522 67.2226 268.522 67.2226V68.794C268.522 69.5083 269.096 70.0797 269.812 70.0797H277.119V36.3654C277.119 36.3654 270.528 36.3654 269.812 36.3654C268.952 36.3654 268.522 36.9369 268.522 37.6512ZM268.522 59.0797C267.233 61.0797 264.51 62.794 261.215 62.794C255.484 62.794 251.042 59.2226 251.042 53.0797C251.042 46.9369 255.484 43.3654 261.215 43.3654C264.367 43.3654 267.233 45.2226 268.522 47.0797V59.0797ZM282.278 36.3654H290.875V69.9369H282.278V36.3654ZM410.803 35.5083C404.928 35.5083 402.063 39.0797 402.063 39.0797V20.2226H393.466V69.9369C393.466 69.9369 400.057 69.9369 400.773 69.9369C401.49 69.9369 402.063 69.3654 402.063 68.6512V67.0797C402.063 67.0797 404.785 70.794 410.803 70.794C420.546 70.794 428.14 63.2226 428.14 53.0797C428.14 42.9369 420.546 35.5083 410.803 35.5083ZM409.37 62.6512C406.075 62.6512 403.496 60.9369 402.063 58.9369V46.9369C403.352 45.0797 406.218 43.2226 409.37 43.2226C415.101 43.2226 419.543 46.794 419.543 52.9369C419.543 59.0797 415.101 62.6512 409.37 62.6512ZM389.024 50.0797V70.0797H380.427V51.0797C380.427 45.5083 378.564 43.3654 373.836 43.3654C371.257 43.3654 368.534 44.6512 366.815 46.6512V70.0797H358.218V36.3654H365.096C365.812 36.3654 366.385 36.9369 366.385 37.6512V39.0797C368.964 36.5083 372.26 35.5083 375.555 35.5083C379.281 35.5083 382.433 36.6512 385.012 38.794C387.878 41.2226 389.024 44.3654 389.024 50.0797ZM337.299 35.5083C331.424 35.5083 328.558 39.0797 328.558 39.0797V20.2226H319.961V69.9369C319.961 69.9369 326.552 69.9369 327.269 69.9369C327.985 69.9369 328.558 69.3654 328.558 68.6512V67.0797C328.558 67.0797 331.281 70.794 337.299 70.794C347.042 70.794 354.636 63.2226 354.636 53.0797C354.779 42.9369 347.185 35.5083 337.299 35.5083ZM335.866 62.6512C332.57 62.6512 329.991 60.9369 328.558 58.9369V46.9369C329.848 45.0797 332.713 43.2226 335.866 43.2226C341.597 43.2226 346.039 46.794 346.039 52.9369C346.039 59.0797 341.597 62.6512 335.866 62.6512ZM312.654 35.5083C315.233 35.5083 316.666 35.9369 316.666 35.9369V43.9369C316.666 43.9369 309.501 41.5083 305.06 46.6512V70.0797H296.463V36.3654C296.463 36.3654 303.054 36.3654 303.77 36.3654C304.487 36.3654 305.06 36.9369 305.06 37.6512V39.0797C306.493 37.2226 309.931 35.5083 312.654 35.5083ZM223.245 66.9369C222.815 65.794 222.385 64.6512 221.955 63.6512C221.239 62.0797 220.522 60.5083 219.949 59.0797H219.806C213.645 45.6512 207.054 32.0797 200.033 18.6512L199.746 18.0797C199.03 16.794 198.313 15.3654 197.597 13.9369C196.737 12.3654 195.734 10.6512 194.301 9.07973C191.436 5.5083 187.281 3.5083 182.982 3.5083C178.54 3.5083 174.528 5.5083 171.519 8.93687C170.23 10.5083 169.227 12.2226 168.224 13.794C167.507 15.2226 166.791 16.6512 166.075 17.9369L165.788 18.5083C158.91 31.9369 152.319 45.5083 146.015 58.9369L145.872 59.0797C145.299 60.5083 144.582 62.0797 143.866 63.6512C143.436 64.6512 143.006 65.6512 142.576 66.9369C141.43 70.0797 141 73.2226 141.43 76.5083C142.433 83.2226 147.018 88.794 153.179 91.3654C155.472 92.3654 157.907 92.794 160.487 92.794C161.203 92.794 162.063 92.6512 162.779 92.6512C165.788 92.2226 168.797 91.3654 171.806 89.6512C175.531 87.6512 178.97 84.6512 182.982 80.3654C186.994 84.6512 190.576 87.6512 194.158 89.6512C197.167 91.3654 200.176 92.3654 203.185 92.6512C203.901 92.794 204.761 92.794 205.478 92.794C208.057 92.794 210.493 92.3654 212.785 91.3654C219.09 88.794 223.388 83.0797 224.391 76.5083C224.821 73.3654 224.534 70.2226 223.245 66.9369ZM182.839 71.5083C177.967 65.3654 174.815 59.6512 173.812 54.9369C173.382 52.9369 173.239 51.0797 173.525 49.5083C173.669 48.0797 174.242 46.794 174.958 45.794C176.678 43.3654 179.543 41.794 182.839 41.794C186.134 41.794 189.143 43.2226 190.719 45.794C191.436 46.9369 192.009 48.0797 192.152 49.5083C192.439 51.0797 192.296 52.9369 191.866 54.9369C190.863 59.6512 187.71 65.3654 182.839 71.5083ZM218.66 75.794C218.087 80.5083 214.934 84.5083 210.493 86.2226C208.343 87.0797 206.051 87.3654 203.615 87.0797C201.322 86.794 199.173 86.0797 196.737 84.794C193.442 82.9369 190.29 80.2226 186.564 76.0797C192.439 68.794 196.021 62.2226 197.454 56.3654C198.027 53.6512 198.17 51.0797 197.884 48.794C197.454 46.5083 196.737 44.5083 195.448 42.6512C192.725 38.6512 187.997 36.3654 182.839 36.3654C177.681 36.3654 172.952 38.794 170.23 42.6512C168.94 44.5083 168.224 46.5083 167.794 48.794C167.364 51.0797 167.507 53.6512 168.224 56.3654C169.513 62.2226 173.239 68.9369 179.113 76.2226C175.388 80.3654 172.093 83.0797 168.94 84.9369C166.648 86.2226 164.355 86.9369 162.063 87.2226C159.627 87.5083 157.334 87.0797 155.328 86.3654C150.887 84.5083 147.734 80.5083 147.161 75.9369C146.875 73.6512 147.018 71.5083 148.021 68.9369C148.307 68.0797 148.737 67.0797 149.167 66.0797C149.74 64.6512 150.457 63.0797 151.173 61.6512L151.316 61.5083C157.478 48.2226 164.069 34.6512 171.09 21.3654L171.376 20.794C172.093 19.5083 172.809 18.0797 173.525 16.6512C174.242 15.2226 175.101 13.9369 176.104 12.6512C177.967 10.5083 180.546 9.36544 183.269 9.36544C185.991 9.36544 188.57 10.5083 190.433 12.6512C191.436 13.794 192.296 15.2226 193.012 16.6512C193.728 17.9369 194.445 19.3654 195.161 20.794L195.448 21.3654C202.325 34.6512 208.916 48.2226 215.078 61.5083V61.6512C215.794 63.0797 216.367 64.6512 217.084 66.0797C217.513 67.2226 217.943 68.0797 218.23 68.9369C218.66 71.2226 218.946 73.3654 218.66 75.794Z" fill="white"/>
</g>
</g>
</svg>
