<svg width="570" height="99" viewBox="0 0 570 99" fill="none" xmlns="http://www.w3.org/2000/svg">
<g id="Item">
<g id="fitbit">
<g id="blue">
<path id="Shape" fill-rule="evenodd" clip-rule="evenodd" d="M183.048 17.7415C183.048 20.7132 180.456 23.2604 177.432 23.2604C174.408 23.2604 171.816 20.7132 171.816 17.7415C171.816 14.7698 174.408 12.2227 177.432 12.2227C180.456 12.2227 183.048 14.7698 183.048 17.7415ZM177.432 27.7887C174.12 27.7887 171.528 30.3359 171.528 33.5906C171.528 36.8453 174.12 39.3925 177.432 39.3925C180.744 39.3925 183.336 36.8453 183.336 33.5906C183.336 30.1944 180.744 27.7887 177.432 27.7887ZM177.432 43.2132C174.12 43.2132 171.384 45.9019 171.384 49.1566C171.384 52.4113 174.12 55.1 177.432 55.1C180.744 55.1 183.48 52.4113 183.48 49.1566C183.624 45.9019 180.744 43.2132 177.432 43.2132ZM177.432 58.9208C174.12 58.9208 171.528 61.4679 171.528 64.7227C171.528 67.9774 174.12 70.5245 177.432 70.5245C180.744 70.5245 183.336 67.9774 183.336 64.7227C183.336 61.6095 180.744 58.9208 177.432 58.9208ZM177.432 74.9113C174.408 74.9113 171.816 77.4585 171.816 80.4302C171.816 83.4019 174.408 85.9491 177.432 85.9491C180.456 85.9491 183.048 83.4019 183.048 80.4302C183.048 77.4585 180.6 74.9113 177.432 74.9113ZM192.984 27.0811C189.384 27.0811 186.36 30.0528 186.36 33.5906C186.36 37.1283 189.384 40.1 192.984 40.1C196.584 40.1 199.608 37.1283 199.608 33.5906C199.608 30.0528 196.584 27.0811 192.984 27.0811ZM192.984 42.5057C189.24 42.5057 186.072 45.4774 186.072 49.2981C186.072 52.9774 189.096 56.0906 192.984 56.0906C196.728 56.0906 199.896 53.1189 199.896 49.2981C199.896 45.4774 196.728 42.5057 192.984 42.5057ZM192.984 58.2132C189.384 58.2132 186.36 61.1849 186.36 64.7227C186.36 68.2604 189.384 71.2321 192.984 71.2321C196.584 71.2321 199.608 68.2604 199.608 64.7227C199.608 61.1849 196.584 58.2132 192.984 58.2132ZM208.968 41.6566C204.936 41.6566 201.336 44.9113 201.336 49.1566C201.336 53.1189 204.648 56.6566 208.968 56.6566C213.288 56.6566 216.6 53.4019 216.6 49.1566C216.312 44.9113 213 41.6566 208.968 41.6566ZM161.736 28.4962C159 28.4962 156.696 30.7604 156.696 33.4491C156.696 36.1377 159 38.4019 161.736 38.4019C164.472 38.4019 166.776 36.1377 166.776 33.4491C166.776 30.7604 164.616 28.4962 161.736 28.4962ZM161.736 43.9208C158.712 43.9208 156.408 46.1849 156.408 49.1566C156.408 52.1283 158.712 54.3925 161.736 54.3925C164.76 54.3925 167.064 52.1283 167.064 49.1566C167.064 46.1849 164.76 43.9208 161.736 43.9208ZM161.736 59.6283C159 59.6283 156.696 61.8925 156.696 64.5811C156.696 67.2698 159 69.534 161.736 69.534C164.472 69.534 166.776 67.2698 166.776 64.5811C166.776 61.8925 164.616 59.6283 161.736 59.6283ZM146.04 44.7698C143.448 44.7698 141.432 46.751 141.432 49.2981C141.432 51.8453 143.448 53.8264 146.04 53.8264C148.632 53.8264 150.648 51.8453 150.648 49.2981C150.648 46.751 148.632 44.7698 146.04 44.7698Z" fill="white"/>
</g>
<g id="wordmark">
<g id="Group">
<path id="Path" fill-rule="evenodd" clip-rule="evenodd" d="M273.912 39.5339C273.336 39.5339 272.904 40.1 272.904 40.5245V79.7226C272.904 80.2887 273.48 80.7132 273.912 80.7132H278.664C279.24 80.7132 279.672 80.1471 279.672 79.7226V40.5245C279.672 39.9585 279.096 39.5339 278.664 39.5339H273.912Z" fill="white"/>
<path id="Path_2" fill-rule="evenodd" clip-rule="evenodd" d="M276.504 22.9768C273.912 22.9768 271.896 24.9579 271.896 27.5051C271.896 30.0523 273.912 32.0334 276.504 32.0334C279.096 32.0334 281.112 30.0523 281.112 27.5051C281.112 24.9579 278.952 22.9768 276.504 22.9768Z" fill="white"/>
<path id="Path_3" fill-rule="evenodd" clip-rule="evenodd" d="M376.152 39.5339C375.576 39.5339 375.144 40.1 375.144 40.5245V79.7226C375.144 80.2887 375.72 80.7132 376.152 80.7132H380.904C381.48 80.7132 381.912 80.1471 381.912 79.7226V40.5245C381.912 39.9585 381.336 39.5339 380.904 39.5339H376.152Z" fill="white"/>
<path id="Path_4" fill-rule="evenodd" clip-rule="evenodd" d="M378.456 22.9768C375.864 22.9768 373.848 24.9579 373.848 27.5051C373.848 30.0523 375.864 32.0334 378.456 32.0334C381.048 32.0334 383.064 30.0523 383.064 27.5051C383.064 24.9579 381.048 22.9768 378.456 22.9768Z" fill="white"/>
<path id="Shape_2" fill-rule="evenodd" clip-rule="evenodd" d="M426.798 76.8921C427.098 76.609 427.098 76.326 427.098 76.1845C427.098 75.9015 427.098 75.9015 427.098 75.9015C427.098 75.9015 427.098 75.6185 426.798 75.6185C426.798 75.6185 426.498 75.3354 426.198 75.3354C425.898 75.3354 425.898 75.3354 425.598 75.3354H424.248V78.8732H424.848V77.5996H425.598L426.648 78.8732H427.248L425.898 77.3166C426.498 77.4581 426.798 77.1751 426.798 76.8921ZM424.998 77.1751V75.9015H426.048C426.348 75.9015 426.648 75.9015 426.798 76.1845C427.098 76.1845 427.098 76.4675 427.098 76.7505C427.098 77.0336 427.098 77.3166 426.798 77.3166C426.498 77.3166 426.198 77.5996 426.048 77.5996H424.998V77.1751Z" fill="white"/>
<path id="Shape_3" fill-rule="evenodd" clip-rule="evenodd" d="M425.688 73.9204C423.96 73.9204 422.376 75.477 422.376 77.1751C422.376 78.8732 423.96 80.4298 425.688 80.4298C427.416 80.4298 429 78.8732 429 77.1751C429 75.3355 427.56 73.9204 425.688 73.9204ZM425.688 80.1468C423.96 80.1468 422.664 78.8732 422.664 77.1751C422.664 75.477 423.96 74.2034 425.688 74.2034C427.416 74.2034 428.712 75.477 428.712 77.1751C428.712 78.8732 427.272 80.1468 425.688 80.1468Z" fill="white"/>
<path id="Path_5" fill-rule="evenodd" clip-rule="evenodd" d="M313.512 45.9018C314.088 45.9018 314.52 45.3357 314.52 44.9112V40.2414C314.52 39.6753 313.944 39.2508 313.512 39.2508H303.288V24.2508C303.288 23.6848 302.712 23.2603 302.28 23.2603H297.528C296.952 23.2603 296.52 23.8263 296.52 24.2508V39.2508H291.48C290.904 39.2508 290.472 39.8169 290.472 40.2414V44.9112C290.472 45.4772 291.048 45.9018 291.48 45.9018H296.52V68.5433C296.52 75.4772 301.272 80.0055 308.184 80.0055H313.224C313.8 80.0055 314.232 79.4395 314.232 79.015V74.3452C314.232 73.7791 313.656 73.3546 313.224 73.3546H308.904C305.592 73.3546 303.288 71.0904 303.288 67.5527V45.7603H313.512V45.9018Z" fill="white"/>
<path id="Path_6" fill-rule="evenodd" clip-rule="evenodd" d="M414.6 45.9018C415.176 45.9018 415.608 45.3357 415.608 44.9112V40.2414C415.608 39.6753 415.032 39.2508 414.6 39.2508H404.376V24.2508C404.376 23.6848 403.8 23.2603 403.368 23.2603H398.616C398.04 23.2603 397.608 23.8263 397.608 24.2508V39.2508H392.568C391.992 39.2508 391.56 39.8169 391.56 40.2414V44.9112C391.56 45.4772 392.136 45.9018 392.568 45.9018H397.608V68.5433C397.608 75.4772 402.36 80.0055 409.272 80.0055H414.312C414.888 80.0055 415.32 79.4395 415.32 79.015V74.3452C415.32 73.7791 414.744 73.3546 414.312 73.3546H409.704C406.392 73.3546 404.088 71.0904 404.088 67.5527V45.7603H414.456L414.6 45.9018Z" fill="white"/>
<path id="Path_7" fill-rule="evenodd" clip-rule="evenodd" d="M243.672 45.9017V79.2979C243.672 79.8639 244.248 80.2885 244.68 80.2885H249.432C250.008 80.2885 250.44 79.7224 250.44 79.2979V45.9017H261.672C262.248 45.9017 262.68 45.3356 262.68 44.9111V40.2413C262.68 39.6753 262.104 39.2507 261.672 39.2507H250.44V30.4772C250.44 26.9394 253.032 24.5338 256.056 24.5338H261.672C262.248 24.5338 262.68 23.9677 262.68 23.5432V18.8734C262.68 18.3073 262.104 17.8828 261.672 17.8828H256.344C249.288 17.8828 243.672 23.6847 243.672 30.3356V39.2507H238.632C238.056 39.2507 237.624 39.8168 237.624 40.2413V44.9111C237.624 45.4772 238.2 45.9017 238.632 45.9017H243.672Z" fill="white"/>
</g>
<path id="Shape_4" fill-rule="evenodd" clip-rule="evenodd" d="M360.024 44.2039C356.28 40.2416 350.952 37.9775 345.336 37.9775C340.008 37.9775 334.68 40.2416 331.368 43.4963V18.5907C331.368 18.0246 330.792 17.6001 330.36 17.6001H325.608C325.032 17.6001 324.6 18.1661 324.6 18.5907V59.7699C324.6 75.0529 334.968 81.7039 345.192 81.7039C355.272 81.7039 365.784 74.9114 365.784 59.7699C365.784 53.685 363.768 48.1661 360.024 44.2039ZM345.192 75.3359C334.968 75.3359 331.224 67.4114 331.224 59.9114C331.224 50.7133 336.84 44.6284 345.192 44.6284C353.544 44.6284 359.16 50.8548 359.16 59.9114C359.016 67.4114 355.416 75.3359 345.192 75.3359Z" fill="white"/>
</g>
</g>
</g>
</svg>
