<svg width="570" height="96" viewBox="0 0 570 96" fill="none" xmlns="http://www.w3.org/2000/svg">
<g id="Item">
<g id="google">
<path id="g_1_" fill-rule="evenodd" clip-rule="evenodd" d="M211.881 33.5998H178.306V43.4998H202.181C200.988 57.4498 189.348 63.5998 178.455 63.5998C164.428 63.5998 152.192 52.4998 152.192 37.0498C152.192 21.8998 163.831 10.1998 178.455 10.1998C189.796 10.1998 196.362 17.3998 196.362 17.3998L203.226 10.1998C203.226 10.1998 194.273 0.299783 178.007 0.299783C157.265 0.149783 141.298 17.6998 141.298 36.7498C141.298 55.3498 156.37 73.4998 178.604 73.4998C198.152 73.4998 212.478 60.1498 212.478 40.1998C212.478 35.9998 211.881 33.5998 211.881 33.5998Z" fill="white"/>
<path id="o_2_" fill-rule="evenodd" clip-rule="evenodd" d="M239.189 26.25C225.46 26.25 215.611 37.05 215.611 49.65C215.611 62.55 225.162 73.5 239.487 73.5C252.469 73.5 262.915 63.75 262.915 49.95C262.766 34.35 250.53 26.25 239.189 26.25ZM239.338 35.7C246.053 35.7 252.469 41.25 252.469 49.95C252.469 58.65 246.202 64.2 239.338 64.2C231.877 64.2 226.057 58.2 226.057 49.8C225.908 41.7 231.727 35.7 239.338 35.7Z" fill="white"/>
<path id="o_1_" fill-rule="evenodd" clip-rule="evenodd" d="M290.521 26.25C276.793 26.25 266.944 37.05 266.944 49.65C266.944 62.55 276.494 73.5 290.82 73.5C303.802 73.5 314.248 63.75 314.248 49.95C314.098 34.35 301.862 26.25 290.521 26.25ZM290.67 35.7C297.385 35.7 303.802 41.25 303.802 49.95C303.802 58.65 297.535 64.2 290.67 64.2C283.209 64.2 277.39 58.2 277.39 49.8C277.24 41.7 283.06 35.7 290.67 35.7Z" fill="white"/>
<path id="g" fill-rule="evenodd" clip-rule="evenodd" d="M340.809 26.4001C328.125 26.4001 318.277 37.5001 318.277 49.9501C318.277 64.0501 329.767 73.6501 340.511 73.6501C347.226 73.6501 350.658 71.1001 353.493 67.9501V72.6001C353.493 80.7001 348.569 85.6501 341.108 85.6501C333.945 85.6501 330.364 80.2501 329.021 77.2501L319.918 81.0001C323.052 87.7501 329.468 94.8001 340.959 94.8001C353.493 94.8001 363.044 86.8502 363.044 70.2001V27.7501H353.195V31.8001C350.509 28.5001 346.331 26.4001 340.809 26.4001ZM341.705 35.7001C347.823 35.7001 354.239 41.1001 354.239 50.1001C354.239 59.4001 347.972 64.3501 341.555 64.3501C334.84 64.3501 328.573 58.8001 328.573 50.2501C328.722 40.9501 335.139 35.7001 341.705 35.7001Z" fill="white"/>
<path id="e" fill-rule="evenodd" clip-rule="evenodd" d="M407.213 26.25C395.276 26.25 385.278 35.7 385.278 49.8C385.278 64.65 396.469 73.5 408.258 73.5C418.107 73.5 424.374 67.95 427.955 63.15L419.748 57.6C417.659 60.9 414.078 64.05 408.258 64.05C401.692 64.05 398.708 60.45 396.768 56.85L428.254 43.65L426.612 39.75C423.479 32.55 416.465 26.25 407.213 26.25ZM407.512 35.4C411.839 35.4 414.824 37.65 416.316 40.5L395.425 49.35C394.231 42.45 400.797 35.4 407.512 35.4Z" fill="white"/>
<path id="l" fill-rule="evenodd" clip-rule="evenodd" d="M370.355 72.1496H380.652V2.54956H370.355V72.1496Z" fill="white"/>
</g>
</g>
</svg>
