<svg width="570" height="99" viewBox="0 0 570 99" fill="none" xmlns="http://www.w3.org/2000/svg">
<g id="Item">
<g id="netflix">
<path id="Shape" fill-rule="evenodd" clip-rule="evenodd" d="M181.461 81.2666C177.141 81.9757 172.821 82.2594 168.213 82.8266L154.389 42.8339V84.5285C150.069 84.9539 146.181 85.5212 142.005 86.2303V9.79028H153.525L169.221 53.1866V9.79028H181.461V81.2666ZM205.362 37.8707C210.114 37.8707 217.314 37.5871 221.634 37.5871V49.4998C216.306 49.4998 209.97 49.4998 205.362 49.7835V67.5107C212.418 67.0853 219.618 66.518 226.818 66.2344V77.7216L193.266 80.2744V9.79073H226.818V21.7035H205.362C205.362 21.8453 205.362 37.8707 205.362 37.8707ZM271.744 21.8453H259.216V76.7289C255.184 76.7289 251.008 76.7289 247.12 76.8707V21.8453H234.592V9.79073H271.888C271.744 9.79073 271.744 21.8453 271.744 21.8453ZM291.474 37.0198H308.034V48.9325H291.474V76.0198H279.522V9.79073H313.362V21.7035H291.474C291.474 21.8453 291.474 37.0198 291.474 37.0198ZM333.093 65.5248C340.005 65.6667 346.917 66.2339 353.685 66.5176V78.2885C342.885 77.5794 332.085 77.0121 320.997 76.7285V9.79028H333.093V65.5248ZM363.908 79.1398C367.796 79.4235 371.828 79.5653 375.86 79.9907V9.79073H363.908V79.1398ZM428.853 9.79073L413.445 46.0962L428.853 86.0889C424.245 85.5216 419.781 84.6707 415.173 83.9616L406.533 61.838L397.605 82.118C393.285 81.4089 388.965 81.1253 384.645 80.558L400.197 45.6707L386.085 9.79073H399.045L406.965 29.7871L415.461 9.79073H428.853Z" fill="white"/>
</g>
</g>
</svg>
