<svg width="570" height="99" viewBox="0 0 570 99" fill="none" xmlns="http://www.w3.org/2000/svg">
<g id="Item">
<g id="slack">
<g id="Group-4">
<path id="Fill-1" fill-rule="evenodd" clip-rule="evenodd" d="M179.104 9.82406C177.791 5.52062 173.194 3.20337 168.925 4.52751C164.657 5.85165 162.358 10.4861 163.672 14.7896L184.686 80.0034C186.164 83.9758 190.433 86.293 194.537 85.1344C198.806 83.8103 201.433 79.3413 200.119 75.0379C200.119 74.8723 179.104 9.82406 179.104 9.82406Z" fill="white"/>
<path id="Fill-3" fill-rule="evenodd" clip-rule="evenodd" d="M146.597 20.5826C145.283 16.2792 140.686 13.9619 136.418 15.2861C132.149 16.6102 129.851 21.2447 131.164 25.5481L152.179 90.7619C153.657 94.7343 157.925 97.0516 162.03 95.893C166.298 94.5688 168.925 90.0998 167.612 85.7964C167.612 85.6309 146.597 20.5826 146.597 20.5826Z" fill="white"/>
</g>
<path id="Fill-5" fill-rule="evenodd" clip-rule="evenodd" d="M205.701 63.9479C209.97 62.6238 212.269 57.9893 210.955 53.6859C209.642 49.3824 205.045 47.0652 200.776 48.3893L135.925 69.41C131.985 70.8997 129.687 75.2031 130.836 79.3411C132.149 83.6445 136.582 86.2928 140.851 84.9686C141.179 84.9686 205.701 63.9479 205.701 63.9479Z" fill="white"/>
<path id="Fill-6" fill-rule="evenodd" clip-rule="evenodd" d="M149.388 82.3208C153.657 80.9966 159.075 79.1759 164.821 77.1897C163.507 72.8863 161.701 67.4242 159.731 61.6311L144.298 66.7621L149.388 82.3208Z" fill="white"/>
<g id="Group-10">
<path id="Fill-7" fill-rule="evenodd" clip-rule="evenodd" d="M182.06 71.5622C187.97 69.576 193.388 67.9208 197.493 66.4312C196.179 62.1277 194.373 56.6657 192.403 50.8726L176.97 56.0036L182.06 71.5622Z" fill="white"/>
<path id="Fill-9" fill-rule="evenodd" clip-rule="evenodd" d="M195.03 31.0102C199.298 29.6861 201.597 25.0516 200.284 20.7481C198.97 16.4447 194.373 14.1274 190.104 15.4516L125.418 36.6378C121.478 38.1274 119.179 42.4309 120.328 46.5688C121.642 51.0378 126.075 53.6861 130.343 52.1964C130.507 52.1964 195.03 31.0102 195.03 31.0102Z" fill="white"/>
</g>
<path id="Fill-11" fill-rule="evenodd" clip-rule="evenodd" d="M138.881 49.383C143.149 48.0589 148.567 46.2382 154.313 44.252C152.343 38.2934 150.701 32.8313 149.224 28.6934L133.791 33.8244L138.881 49.383Z" fill="white"/>
<path id="Fill-12" fill-rule="evenodd" clip-rule="evenodd" d="M171.388 38.79C177.298 36.8038 182.716 35.1486 186.821 33.659C184.851 27.7003 183.209 22.2383 181.731 18.1003L166.298 23.2314L171.388 38.79Z" fill="white"/>
<path id="Fill-13" fill-rule="evenodd" clip-rule="evenodd" d="M271.209 27.0378C274 28.362 274.328 29.1895 272.03 33.493C269.731 37.962 269.239 38.1275 266.283 36.9689C262.672 35.4792 258.239 34.3206 255.283 34.3206C250.522 34.3206 247.403 35.9758 247.403 38.624C247.403 47.2309 274.821 42.5964 274.821 61.1344C274.821 70.4033 266.94 76.5275 255.119 76.5275C248.88 76.5275 241.164 74.3758 235.91 71.7275C233.283 70.4033 233.119 69.5758 235.418 65.1068C237.388 61.2999 238.045 60.8033 240.836 61.962C245.433 63.9482 251.015 65.4378 254.955 65.4378C259.388 65.4378 262.179 63.6171 262.179 60.9689C262.179 52.5275 234.269 56.4999 234.269 38.624C234.269 29.1895 242.149 22.7344 253.806 22.7344C259.388 23.2309 266.448 24.8861 271.209 27.0378Z" fill="white"/>
<path id="Fill-14" fill-rule="evenodd" clip-rule="evenodd" d="M293.373 5.18964V74.0448C293.373 75.0379 292.224 76.1965 290.746 76.1965H283.522C281.881 76.1965 280.896 75.0379 280.896 74.0448V5.18964C280.896 1.71378 281.881 1.54826 287.134 1.54826C293.045 1.38275 293.373 1.8793 293.373 5.18964Z" fill="white"/>
<path id="Fill-15" fill-rule="evenodd" clip-rule="evenodd" d="M311.269 60.9689C311.269 64.4447 314.224 66.762 318.657 66.762C324.075 66.762 329 64.1137 331.791 59.6447V55.0103C329 53.8516 325.388 53.3551 322.269 53.3551C315.701 53.3551 311.269 56.6654 311.269 60.9689ZM344.269 43.7551V73.3827C344.269 75.0379 343.119 76.031 341.642 76.031H334.582C332.94 76.031 331.791 74.8723 331.955 73.2172L332.119 70.0723C328.343 74.3758 322.761 76.693 317.179 76.693C306.507 76.693 299.284 70.4034 299.284 61.1344C299.284 51.2034 307.328 44.5827 319.642 44.5827C324.239 44.5827 328.507 45.4103 331.955 46.8999V43.4241C331.955 37.962 327.686 34.6516 320.463 34.6516C317.015 34.6516 312.91 35.9758 309.627 37.962C307 39.4516 306.507 39.2861 303.716 35.1482C301.089 31.0103 301.089 30.1827 303.716 28.5275C308.642 25.2172 315.537 23.231 321.776 23.231C335.567 23.231 344.269 30.8447 344.269 43.7551Z" fill="white"/>
<g id="Group-19">
<path id="Fill-16" fill-rule="evenodd" clip-rule="evenodd" d="M393.03 27.2038C395.657 28.6934 395.657 29.521 392.866 33.99C390.239 38.1279 389.746 38.459 386.791 36.9693C384.657 35.8107 381.045 34.8176 378.254 34.8176C369.224 34.8176 363.313 40.7762 363.313 49.8797C363.313 59.3141 369.224 65.6038 378.254 65.6038C381.373 65.6038 385.313 64.4452 387.776 62.9555C390.403 61.4659 390.895 61.4659 393.687 65.6038C396.149 69.4107 396.149 70.2383 393.851 71.8934C389.91 74.7072 383.507 76.859 377.925 76.859C361.343 76.859 350.179 66.1003 350.179 50.0452C350.179 33.99 361.343 23.3969 378.089 23.3969C383.343 23.2314 389.254 24.8865 393.03 27.2038Z" fill="white"/>
<path id="Fill-18" fill-rule="evenodd" clip-rule="evenodd" d="M447.373 69.5759C449.507 72.2242 448.686 73.2173 443.433 75.038C438.179 77.0242 437.358 76.8587 435.552 74.3759L420.612 54.3483L413.881 60.8035V73.8794C413.881 74.8725 412.731 76.0311 411.254 76.0311H404.03C402.388 76.0311 401.403 74.8725 401.403 73.8794V5.18972C401.403 1.71386 402.388 1.54834 407.642 1.54834C413.716 1.54834 413.881 2.04489 413.881 5.18972V44.2518L434.239 24.5552C436.537 22.4035 437.686 22.569 441.791 25.2173C446.224 28.0311 446.552 28.8587 444.418 31.0104L429.313 45.907L447.373 69.5759Z" fill="white"/>
</g>
</g>
</g>
</svg>
