<svg width="570" height="99" viewBox="0 0 570 99" fill="none" xmlns="http://www.w3.org/2000/svg">
<g id="Item">
<g id="uber">
<path id="Fill-1" fill-rule="evenodd" clip-rule="evenodd" d="M186.134 20.4202V54.2644C186.134 65.5458 181.263 70.2341 169.8 70.2341C158.337 70.2341 153.466 65.5458 153.466 54.2644V18.9551H142.433C141.43 18.9551 141 19.3946 141 20.4202V54.7039C141 73.6039 152.749 80.1969 169.8 80.1969C186.851 80.1969 198.6 73.6039 198.6 54.7039V18.9551H187.567C186.707 18.9551 186.134 19.3946 186.134 20.4202Z" fill="white"/>
<path id="Fill-2" fill-rule="evenodd" clip-rule="evenodd" d="M346.182 28.7714C347.042 28.7714 347.472 28.4783 347.758 27.7458L350.91 19.6876C351.054 19.2481 350.91 18.9551 350.481 18.9551H306.063C301.907 18.9551 300.331 20.2737 300.331 23.2039V75.6551C300.331 78.1458 301.478 79.1714 304.773 79.1714H346.182C347.042 79.1714 347.472 78.8783 347.758 78.1458L350.91 70.0876C351.054 69.6481 350.91 69.3551 350.481 69.3551H312.51V58.6597C312.51 54.9969 314.516 53.2388 319.818 53.2388H336.296C337.155 53.2388 337.585 52.9458 337.872 52.2132L340.881 44.4481C341.024 44.0086 340.881 43.7155 340.451 43.7155H312.367V28.7714H346.182Z" fill="white"/>
<path id="Fill-3" fill-rule="evenodd" clip-rule="evenodd" d="M256.343 69.5016H234.564V58.5132C234.564 54.8504 236.57 53.0923 241.872 53.0923H256.343C263.221 53.0923 265.227 55.876 265.227 61.2969C265.227 66.8644 263.221 69.5016 256.343 69.5016ZM234.564 28.6248H254.051C260.499 28.6248 262.361 31.1155 262.361 36.39C262.361 41.5179 260.499 44.1551 254.051 44.1551H234.564V28.6248ZM267.949 47.3783C272.821 44.7411 274.827 39.9062 274.827 34.1923C274.827 20.8597 264.224 18.9551 253.191 18.9551H227.973C223.818 18.9551 222.242 20.2737 222.242 23.2039V75.6551C222.242 78.1458 223.388 79.1714 226.684 79.1714H257.49C269.096 79.1714 277.406 74.483 277.406 62.469C277.549 55.29 274.54 49.283 267.949 47.3783Z" fill="white"/>
<path id="Fill-4" fill-rule="evenodd" clip-rule="evenodd" d="M404.928 46.9388H384.439V28.6248H404.928C412.522 28.6248 414.242 31.7016 414.242 37.7086C414.242 43.8621 412.666 46.9388 404.928 46.9388ZM427.997 78.1458L414.815 54.9969C421.406 53.2388 426.707 48.8434 426.707 37.5621C426.707 22.9109 417.824 18.9551 403.209 18.9551H377.991C373.836 18.9551 372.26 20.2737 372.26 23.2039V77.7062C372.26 78.7318 372.69 79.1714 373.693 79.1714H384.439V61.59C384.439 57.9272 386.445 56.169 391.746 56.169H402.636L414.528 78.1458C414.958 78.7318 415.245 79.1714 416.105 79.1714H427.281C428.284 79.1714 428.284 78.4388 427.997 78.1458Z" fill="white"/>
</g>
</g>
</svg>
